<svg width="82" height="81" viewBox="0 0 82 81" fill="none" xmlns="http://www.w3.org/2000/svg">
<path fill-rule="evenodd" clip-rule="evenodd" d="M62.2829 38.0146C58.7342 37.9729 53.4483 36.8139 49.1726 33.5004C44.9384 30.219 41.6286 24.7772 42.0324 15.9934L40.4771 15.9219C40.0506 25.1988 43.5741 31.1315 48.2189 34.731C50.1026 36.1908 52.1597 37.259 54.1935 38.0146H19.7168V39.5716H54.9265C52.6573 40.3351 50.3291 41.479 48.2186 43.1146C43.5738 46.7141 40.0503 52.6468 40.4768 61.9238L42.0322 61.8523C41.6283 53.0685 44.9381 47.6266 49.1723 44.3453C53.4481 41.0318 58.734 39.8727 62.2827 39.831L62.2757 39.2406L62.2829 38.0146Z" fill="black"/>
</svg>
